Coordinates
version=1
nRows=18
nColumns=63
inDegrees=yes

Units are S.I. units (second, meters, Newtons, ...)
If the header above contains a line with 'inDegrees', this indicates whether rotational values are in degrees (yes) or radians (no).

endheader
time	pelvis_tilt	pelvis_list	pelvis_rotation	pelvis_tx	pelvis_ty	pelvis_tz	hip_flexion_r	hip_adduction_r	hip_rotation_r	knee_angle_r	knee_angle_r_beta	ankle_angle_r	subtalar_angle_r	mtp_angle_r	hip_flexion_l	hip_adduction_l	hip_rotation_l	knee_angle_l	knee_angle_l_beta	ankle_angle_l	subtalar_angle_l	mtp_angle_l	L5_S1_Flex_Ext	L5_S1_Lat_Bending	L5_S1_axial_rotation	L4_L5_Flex_Ext	L4_L5_Lat_Bending	L4_L5_axial_rotation	L3_L4_Flex_Ext	L3_L4_Lat_Bending	L3_L4_axial_rotation	L2_L3_Flex_Ext	L2_L3_Lat_Bending	L2_L3_axial_rotation	L1_L2_Flex_Ext	L1_L2_Lat_Bending	L1_L2_axial_rotation	L1_T12_Flex_Ext	L1_T12_Lat_Bending	L1_T12_axial_rotation	Abs_r3	Abs_r2	Abs_r1	Abs_t1	Abs_t2	neck_flexion	neck_bending	neck_rotation	arm_flex_r	arm_add_r	arm_rot_r	elbow_flex_r	pro_sup_r	wrist_flex_r	wrist_dev_r	arm_flex_l	arm_add_l	arm_rot_l	elbow_flex_l	pro_sup_l	wrist_flex_l	wrist_dev_l
1.148936	9.228953	-3.702947	87.286016	0.209955	0.845323	0.541198	-5.790190	4.555601	19.402103	0.231613	0.004042	23.759037	-16.305400	0.000000	-3.965548	-6.508025	10.672676	0.226478	0.003953	33.535727	-11.604289	0.000000	0.523200	0.675027	-0.126924	0.971635	0.897786	-0.134857	0.859566	1.641261	-0.134857	0.597966	1.641261	-0.111058	0.485844	1.376515	-0.103126	0.298957	1.045617	-0.095193	3.737168	7.636043	-0.705913	0.000000	0.000000	28.323019	6.351959	11.481482	16.947945	-8.272469	148.870899	9.583763	3.341803	-3.461289	-4.207804	13.138779	-0.446818	154.925987	5.036846	3.738614	-6.146277	-3.138451
1.170213	9.185792	-3.102665	87.523702	0.209782	0.845538	0.538057	-6.777891	4.460896	19.094642	0.005154	0.000090	23.754828	-16.609049	0.000000	-4.744726	-6.431960	11.302371	0.227372	0.003968	33.581356	-12.138104	0.000000	0.486423	0.660769	-0.144910	0.903336	0.878822	-0.153967	0.799145	1.606593	-0.153967	0.555933	1.606593	-0.126796	0.451693	1.347439	-0.117740	0.277942	1.023531	-0.108683	3.474472	7.474747	-0.805947	0.000000	0.000000	28.320068	6.503446	11.357830	16.569596	-9.304023	148.940386	10.030346	3.630592	-3.954923	-4.054828	12.761650	-1.390131	157.053558	5.071447	4.175031	-6.228711	-2.547106
1.191489	9.144751	-2.464819	87.645760	0.209836	0.845813	0.535006	-7.709986	4.381372	18.488877	-0.047638	-0.000831	23.963563	-16.418263	0.000000	-5.594134	-6.355800	11.877773	0.227539	0.003971	33.594445	-12.806616	0.000000	0.444654	0.644715	-0.150831	0.825767	0.857471	-0.160258	0.730522	1.567561	-0.160258	0.508195	1.567561	-0.131977	0.412906	1.314703	-0.122550	0.254075	0.998664	-0.113123	3.176119	7.293148	-0.838878	0.000000	0.000000	28.316227	6.698519	11.180765	16.120173	-10.233307	148.945137	10.334341	3.790658	-4.487275	-4.013529	12.389887	-2.352609	159.033481	5.163995	4.534925	-6.249935	-2.109038
1.212766	9.106368	-1.806140	87.661171	0.210096	0.846152	0.532104	-8.574163	4.313649	17.614679	0.043783	0.000764	24.352272	-15.753563	0.000000	-6.487899	-6.279588	12.237209	0.227493	0.003971	33.619208	-13.371294	0.000000	0.398971	0.627346	-0.149258	0.740930	0.834370	-0.158587	0.655470	1.525328	-0.158587	0.455984	1.525328	-0.130601	0.370485	1.279283	-0.121272	0.227972	0.971758	-0.111944	2.849813	7.096660	-0.830130	0.000000	0.000000	28.311931	6.938162	10.996858	15.602549	-11.067862	148.276889	10.536253	3.874745	-4.992790	-4.082158	11.998400	-3.361146	160.685395	5.326217	4.838911	-6.256012	-1.813900
1.234043	9.085491	-1.164425	87.585783	0.210568	0.846527	0.529380	-9.364699	4.284270	16.735757	0.197914	0.003454	24.806089	-14.957676	0.000000	-7.378949	-6.219932	12.405143	0.227242	0.003966	33.659123	-13.838818	0.000000	0.354489	0.610241	-0.146150	0.658321	0.811620	-0.155285	0.582390	1.483740	-0.155285	0.405145	1.483740	-0.127881	0.329178	1.244403	-0.118747	0.202555	0.945263	-0.109613	2.532079	6.903167	-0.812843	0.000000	0.000000	28.308021	7.210943	10.806537	15.009595	-11.823099	146.623662	10.666673	3.913165	-5.461019	-4.222243	11.553704	-4.435312	161.939057	5.565807	5.093161	-6.279635	-1.631670
1.255319	9.081944	-0.554903	87.496412	0.211146	0.846919	0.526843	-10.147681	4.294172	16.374956	0.228038	0.003980	25.007748	-14.872546	0.000000	-8.231297	-6.179317	12.471879	0.226939	0.003961	33.686319	-14.223335	0.000000	0.313079	0.593226	-0.155322	0.581418	0.788990	-0.165030	0.514357	1.442369	-0.165030	0.357818	1.442369	-0.135907	0.290725	1.209706	-0.126199	0.178893	0.918907	-0.116492	2.236290	6.710690	-0.863855	0.000000	0.000000	28.305027	7.510051	10.632952	14.337179	-12.499852	144.166697	10.698187	3.903730	-5.910139	-4.381604	11.055998	-5.573627	162.821812	5.882857	5.304245	-6.322071	-1.546813
1.276596	9.091629	0.012907	87.261395	0.211945	0.847347	0.524597	-10.840617	4.306248	16.023145	0.276529	0.004826	25.215566	-14.574805	0.000000	-9.055097	-6.140393	12.206068	0.225385	0.003934	33.743270	-14.393892	0.000000	0.272805	0.577246	-0.151111	0.506626	0.767738	-0.160555	0.448191	1.403517	-0.160555	0.311789	1.403517	-0.132222	0.253327	1.177121	-0.122777	0.155881	0.894154	-0.113333	1.948618	6.529925	-0.840432	0.000000	0.000000	28.304094	7.834625	10.480902	13.607998	-13.105460	141.235216	10.614389	3.877465	-6.343917	-4.512935	10.538128	-6.759276	163.064436	6.317353	5.406812	-6.380490	-1.493388
1.297872	9.130186	0.496730	87.000110	0.212778	0.847757	0.522692	-11.418587	4.356252	15.853719	0.299050	0.005219	25.252061	-14.507841	0.000000	-9.775166	-6.136899	11.802103	0.223815	0.003906	33.796858	-14.442182	0.000000	0.238861	0.565471	-0.149285	0.443589	0.752077	-0.158615	0.392425	1.374886	-0.158615	0.272994	1.374886	-0.130625	0.221806	1.153109	-0.121294	0.136485	0.875915	-0.111964	1.706159	6.396722	-0.830279	0.000000	0.000000	28.305249	8.160407	10.411195	12.832439	-13.650905	138.313927	10.398711	3.815256	-6.703711	-4.652867	10.009844	-7.926756	162.532605	6.806152	5.459134	-6.420403	-1.487522
1.319149	9.194518	0.889664	86.749750	0.213552	0.848137	0.521156	-11.911741	4.442374	16.016556	0.210885	0.003681	24.992884	-14.918185	0.000000	-10.385543	-6.169036	11.455357	0.192104	0.003353	33.806851	-14.560484	0.000000	0.210647	0.558647	-0.149579	0.391192	0.743000	-0.158928	0.346071	1.358294	-0.158928	0.240748	1.358294	-0.130882	0.195607	1.139192	-0.121533	0.120364	0.865344	-0.112184	1.504628	6.319523	-0.831915	0.000000	0.000000	28.337496	8.455279	10.416525	12.042678	-14.117487	136.159526	10.026610	3.466008	-6.928627	-4.879972	9.490773	-8.995499	161.508258	7.271346	5.168837	-6.378690	-1.575409
1.340426	9.288685	1.155072	86.486753	0.214273	0.848475	0.520178	-12.149109	4.566898	15.843295	0.287073	0.005010	24.851294	-14.815195	0.000000	-10.802808	-6.239596	10.786158	0.207668	0.003624	33.898217	-14.281359	0.000000	0.191778	0.558160	-0.143555	0.356150	0.742353	-0.152527	0.315072	1.357111	-0.152527	0.219183	1.357111	-0.125611	0.178085	1.138201	-0.116638	0.109582	0.864591	-0.107666	1.369849	6.314023	-0.798410	0.000000	0.000000	28.325196	8.720518	10.506939	11.270235	-14.545708	134.340986	9.647238	3.533931	-7.091842	-5.175121	8.999590	-9.963697	159.341915	7.778793	5.268510	-6.349879	-1.679179
1.361702	9.405238	1.324548	86.251567	0.214897	0.848788	0.519677	-12.242179	4.723134	15.748949	0.367606	0.006416	24.613681	-14.808687	0.000000	-11.076740	-6.344801	9.966226	0.222739	0.003888	34.028063	-13.741128	0.000000	0.178008	0.562532	-0.136340	0.330578	0.748167	-0.144862	0.292449	1.367739	-0.144862	0.203445	1.367739	-0.119298	0.165298	1.147115	-0.110777	0.101714	0.871362	-0.102255	1.271492	6.363470	-0.758284	0.000000	0.000000	28.315495	8.921537	10.627560	10.549586	-14.906989	133.214554	9.276664	3.621488	-7.198549	-5.624748	8.523326	-10.804823	156.577616	8.237581	5.304306	-6.264336	-1.844281
1.382979	9.532911	1.399509	86.081921	0.215366	0.849058	0.519623	-12.195693	4.903183	15.731109	0.457872	0.007991	24.307866	-14.935964	0.000000	-11.200977	-6.475358	9.267568	0.236862	0.004134	34.135111	-13.239331	0.000000	0.170668	0.570367	-0.133870	0.316948	0.758588	-0.142237	0.280391	1.386789	-0.142237	0.195057	1.386789	-0.117136	0.158483	1.163092	-0.108769	0.097520	0.883498	-0.100402	1.219068	6.452101	-0.744543	0.000000	0.000000	28.308360	9.048867	10.750494	9.919501	-15.224684	132.482481	8.982289	3.670699	-7.276192	-6.186435	8.057347	-11.522832	153.388761	8.619856	5.258349	-6.124388	-2.049516
1.404255	9.661238	1.403883	85.979881	0.215661	0.849305	0.519969	-12.039009	5.094011	15.703581	0.567614	0.009907	23.996539	-15.085246	0.000000	-11.203223	-6.619746	8.621206	0.249810	0.004360	34.244632	-12.669529	0.000000	0.167702	0.580392	-0.135191	0.311439	0.771921	-0.143640	0.275518	1.411164	-0.143640	0.191667	1.411164	-0.118292	0.155728	1.183534	-0.109843	0.095825	0.899026	-0.101393	1.197879	6.565505	-0.751892	0.000000	0.000000	28.303562	9.074479	10.831892	9.400764	-15.530478	131.774021	8.782139	3.699605	-7.323412	-6.823982	7.615121	-12.123780	149.930927	8.909888	5.159966	-5.916208	-2.290402
1.425532	9.763151	1.354659	85.951380	0.215767	0.849541	0.520644	-11.802581	5.264909	15.584500	0.693644	0.012106	23.724948	-15.160829	0.000000	-11.103237	-6.749482	7.989569	0.262463	0.004581	34.369662	-11.959800	0.000000	0.169216	0.589385	-0.141139	0.314251	0.783882	-0.149961	0.278005	1.433031	-0.149961	0.193397	1.433031	-0.123497	0.157134	1.201874	-0.114676	0.096690	0.912958	-0.105855	1.208693	6.667244	-0.784975	0.000000	0.000000	28.300634	8.990718	10.848899	8.997010	-15.837956	130.726695	8.660691	3.800366	-7.311168	-7.462883	7.216932	-12.618020	146.451225	9.111757	4.983868	-5.646451	-2.535671
1.446809	9.809854	1.269082	86.025250	0.215649	0.849768	0.521569	-11.520477	5.391403	15.362987	0.826324	0.014422	23.481622	-15.243965	0.000000	-10.919945	-6.837802	7.477773	0.274580	0.004792	34.482057	-11.206070	0.000000	0.175214	0.593474	-0.160058	0.325390	0.789320	-0.170062	0.287859	1.442972	-0.170062	0.200252	1.442972	-0.140051	0.162704	1.210211	-0.130048	0.100117	0.919290	-0.120044	1.251537	6.713491	-0.890197	0.000000	0.000000	28.299486	8.805212	10.783648	8.731693	-16.122711	129.550921	8.556216	3.866768	-7.255317	-8.033927	6.872112	-13.032660	143.068948	9.264053	4.783884	-5.358750	-2.769416
1.468085	9.787313	1.155218	86.172158	0.215358	0.849977	0.522650	-11.210503	5.453820	15.047020	0.968338	0.016901	23.275237	-15.329525	0.000000	-10.675174	-6.864264	7.042008	0.285952	0.004991	34.577837	-10.393273	0.000000	0.187085	0.590972	-0.189077	0.347436	0.785992	-0.200894	0.307362	1.436888	-0.200894	0.213819	1.436888	-0.165442	0.173727	1.205109	-0.153625	0.106900	0.915415	-0.141808	1.336329	6.685188	-1.051589	0.000000	0.000000	28.299876	8.569686	10.683024	8.602043	-16.376011	128.062432	8.452496	3.984855	-7.102008	-8.480162	6.586251	-13.379236	139.946071	9.384626	4.639791	-5.120329	-2.974343
1.489362	9.711109	1.033348	86.381876	0.214888	0.850174	0.523814	-10.903924	5.464803	14.614412	1.118237	0.019517	23.105494	-15.375764	0.000000	-10.400649	-6.838939	6.793026	0.296191	0.005170	34.609012	-9.716020	0.000000	0.203128	0.583775	-0.227331	0.377230	0.776421	-0.241539	0.333719	1.419391	-0.241539	0.232155	1.419391	-0.198914	0.188625	1.190435	-0.184706	0.116068	0.904268	-0.170498	1.450925	6.603784	-1.264346	0.000000	0.000000	28.301884	8.284549	10.535571	8.626508	-16.591696	126.669811	8.325390	4.048246	-6.889188	-8.749533	6.370051	-13.642968	137.300842	9.465650	4.542327	-4.944977	-3.120791
1.510638	9.566904	0.912809	86.643029	0.214267	0.850346	0.524982	-10.623540	5.406469	14.109469	1.258932	0.021973	22.964103	-15.401976	0.000000	-10.115159	-6.744744	6.684648	0.305332	0.005329	34.582225	-9.117023	0.000000	0.223444	0.569901	-0.272743	0.414958	0.757969	-0.289789	0.367096	1.385658	-0.289789	0.255374	1.385658	-0.238650	0.207490	1.162143	-0.221604	0.127676	0.882777	-0.204557	1.596037	6.446839	-1.516915	0.000000	0.000000	28.304670	7.999474	10.364902	8.800534	-16.769987	125.273518	8.213885	4.118524	-6.576525	-8.835941	6.205354	-13.826398	135.122062	9.500431	4.525493	-4.847809	-3.214950
